HIERARCHY
ROOT root
{
	OFFSET	0	13.1	24.9
	CHANNELS 6  Xposition Yposition Zposition Xrotation Yrotation Zrotation
	JOINT spine_1
	{
		OFFSET	0	9.99999	0
		CHANNELS 3  Xrotation Yrotation Zrotation
		JOINT spine_2
		{
			OFFSET	0	112	-10
			CHANNELS 3  Xrotation Yrotation Zrotation
			JOINT spine_3
			{
				OFFSET	0	206.5	19.3
				CHANNELS 3  Xrotation Yrotation Zrotation
				JOINT spine_4
				{
					OFFSET	0	110.4	14.6
					CHANNELS 3  Xrotation Yrotation Zrotation
					JOINT neck_1
					{
						OFFSET	0	71.8	-50.3
						CHANNELS 3  Xrotation Yrotation Zrotation
						JOINT neck_2
						{
							OFFSET	0	86.2	-25.8
							CHANNELS 3  Xrotation Yrotation Zrotation
							JOINT head_ee
							{
								OFFSET	0	179.8	-8.7
								CHANNELS 3  Xrotation Yrotation Zrotation
								End Site
								{
									OFFSET	1	0	0
								}
							}
						}
					}
					JOINT left_clavicle
					{
						OFFSET	-43.2	22.4	-70.8
						CHANNELS 3  Xrotation Yrotation Zrotation
						JOINT left_shoulder
						{
							OFFSET	-93.9	-5.79999	48.7
							CHANNELS 3  Xrotation Yrotation Zrotation
							JOINT left_elbow
							{
								OFFSET	-291.4	-30.8	15.2
								CHANNELS 3  Xrotation Yrotation Zrotation
								JOINT left_lowarm_twist
								{
									OFFSET	-110.7	-3.89999	13.6
									CHANNELS 3  Xrotation Yrotation Zrotation
									JOINT left_hand
									{
										OFFSET	-110.7	-3.89999	13.6
										CHANNELS 3  Xrotation Yrotation Zrotation
										JOINT left_ee
										{
											OFFSET	-80.8	-5.10001	12.1
											CHANNELS 3  Xrotation Yrotation Zrotation
											End Site
											{
												OFFSET	1	0	0
											}
										}
									}
								}
							}
						}
					}
					JOINT right_clavicle
					{
						OFFSET	43.2	22.4	-70.8
						CHANNELS 3  Xrotation Yrotation Zrotation
						JOINT right_shoulder
						{
							OFFSET	93.9	-5.79999	48.7
							CHANNELS 3  Xrotation Yrotation Zrotation
							JOINT right_elbow
							{
								OFFSET	291.4	-30.8	15.2
								CHANNELS 3  Xrotation Yrotation Zrotation
								JOINT right_lowarm_twist
								{
									OFFSET	110.7	-3.89999	13.6
									CHANNELS 3  Xrotation Yrotation Zrotation
									JOINT right_hand
									{
										OFFSET	110.7	-3.89999	13.6
										CHANNELS 3  Xrotation Yrotation Zrotation
										JOINT right_ee
										{
											OFFSET	80.8	-5.10001	12.1
											CHANNELS 3  Xrotation Yrotation Zrotation
											End Site
											{
												OFFSET	1	0	0
											}
										}
									}
								}
							}
						}
					}
				}
			}
		}
	}
	JOINT left_hip
	{
		OFFSET	-82.8	-127.5	0.300001
		CHANNELS 3  Xrotation Yrotation Zrotation
		JOINT left_knee
		{
			OFFSET	-28.2	-396.7	2.2
			CHANNELS 3  Xrotation Yrotation Zrotation
			JOINT left_ankle
			{
				OFFSET	-11.7	-411.3	35.4
				CHANNELS 3  Xrotation Yrotation Zrotation
				JOINT left_toes
				{
					OFFSET	0	-60	-88.6
					CHANNELS 3  Xrotation Yrotation Zrotation
					JOINT left_foot_ee
					{
						OFFSET	-22.5	-16.5	-42.2
						CHANNELS 3  Xrotation Yrotation Zrotation
						End Site
						{
							OFFSET	1	0	0
						}
					}
				}
			}
		}
	}
	JOINT right_hip
	{
		OFFSET	82.8	-127.5	0.300001
		CHANNELS 3  Xrotation Yrotation Zrotation
		JOINT right_knee
		{
			OFFSET	28.2	-396.7	2.2
			CHANNELS 3  Xrotation Yrotation Zrotation
			JOINT right_ankle
			{
				OFFSET	11.7	-411.3	35.4
				CHANNELS 3  Xrotation Yrotation Zrotation
				JOINT right_toes
				{
					OFFSET	0	-60	-88.6
					CHANNELS 3  Xrotation Yrotation Zrotation
					JOINT right_foot_ee
					{
						OFFSET	22.5	-16.5	-42.2
						CHANNELS 3  Xrotation Yrotation Zrotation
						End Site
						{
							OFFSET	1	0	0
						}
					}
				}
			}
		}
	}
}
MOTION
Frames: 8
Frame Time: 0.02
3722.45 745.513 -674.007 -14.548 48.696 15.1962 0.828941 0.247746 1.08558 0.829579 0.17817 1.09914 0.833228 -0.0406396 1.11275 0.831526 0.135597 1.1052 -6.35982 -17.9509 1.27727 -6.2602 -34.2337 -2.24341 -0.0 0.0 -0.0 -1.80658 23.9647 0.324123 -13.5904 -51.2343 65.798 0.774102 -20.9801 0.143334 5.63906 0.164275 -0.701284 -1.17807 14.3895 -1.43922 -0.0 0.0 -0.0 9.99529 18.1022 -19.5199 -12.4493 29.6247 -57.371 1.00163 26.3891 -0.234835 49.9841 0.967673 6.11164 0.374942 -2.44338 -3.51419 0.0 0.0 0.0 24.432 -8.45635 -10.997 -23.2767 0.242358 3.53926 21.6109 26.7853 -3.11179 -25.7273 0.0 0.0 -0.0 0.0 -0.0 19.8376 22.4894 -5.18817 -20.1484 -0.293845 -3.06206 21.2458 -28.9715 3.10864 0.502662 -0.0 -0.0 0.0 0.0 0.0 
3715.88 744.739 -669.827 -14.3297 49.8769 15.7615 0.851146 0.21239 0.806386 0.851493 0.160649 0.818265 0.853921 -0.00248686 0.833881 0.852974 0.129236 0.82381 -6.07836 -17.9129 1.73189 -5.92732 -34.4492 -1.68255 -0.0 0.0 -0.0 -1.43769 23.3104 0.724628 -15.6216 -53.0198 65.2511 0.706996 -19.3016 0.120226 5.59507 0.163262 -0.695757 -1.30029 14.9513 -1.94549 -0.0 0.0 -0.0 9.88683 17.6106 -19.3075 -12.3833 29.3928 -57.0952 0.992271 26.1755 -0.230691 48.9523 0.894832 6.00143 0.342977 -2.4872 -3.3199 0.0 0.0 0.0 24.2972 -7.21333 -10.866 -23.0842 0.246277 3.50999 22.7139 26.6961 -3.25333 -25.1912 0.0 0.0 -0.0 0.0 -0.0 18.9699 22.8023 -5.09808 -19.99 -0.295758 -3.03783 19.0903 -29.6236 2.83059 0.561137 -0.0 -0.0 0.0 0.0 0.0 
3706.37 745.106 -663.611 -14.2641 49.9627 15.3869 0.894261 0.0798757 0.749763 0.894574 0.0320058 0.753326 0.895073 -0.11542 0.74512 0.894298 0.00370258 0.753996 -5.20805 -18.0566 1.94931 -4.91933 -34.7489 -1.19557 -0.0 0.0 -0.0 -1.90511 23.1156 0.0501298 -13.2371 -51.9465 69.2454 0.689128 -18.8486 0.114386 5.76148 0.167072 -0.716673 -1.21131 14.5646 -1.56751 -0.0 0.0 -0.0 9.80371 17.6752 -19.1183 -12.683 28.5952 -56.8642 1.02773 26.9804 -0.246556 49.4113 0.926987 6.05062 0.522822 -1.10317 -3.94825 0.0 0.0 0.0 25.6812 -5.8232 -10.9875 -24.2483 0.221069 3.68685 19.7237 26.8381 -2.86326 -26.4947 0.0 0.0 -0.0 0.0 -0.0 18.8765 23.5379 -4.05412 -21.074 -0.281327 -3.20353 16.4632 -30.3067 2.47754 0.664826 -0.0 -0.0 0.0 0.0 0.0 
3697.69 740.331 -657.592 -14.6022 50.2881 16.0076 0.847484 -0.0177944 0.748339 0.847793 -0.0653758 0.745691 0.846994 -0.210057 0.718475 0.846286 -0.0939543 0.742631 -5.18956 -18.1728 2.38102 -4.87747 -35.2771 -0.766216 -0.0 0.0 -0.0 -2.18344 22.7519 -0.397483 -14.7826 -51.7695 68.3003 0.8235 -22.1923 0.161509 6.47644 0.182751 -0.806656 -1.11751 14.992 -0.795205 -0.0 0.0 -0.0 9.65522 16.7555 -18.8407 -13.1176 28.7464 -56.2335 1.08139 28.1766 -0.271398 49.3308 0.921321 6.04201 0.555858 -1.21377 -4.21418 0.0 0.0 0.0 25.4023 -6.14511 -10.7145 -24.1039 0.224391 3.66494 20.6377 25.6334 -2.96312 -26.4292 0.0 0.0 -0.0 0.0 -0.0 19.1776 24.3726 -4.02361 -21.7512 -0.270721 -3.3069 19.0428 -28.5977 2.80389 0.685716 -0.0 -0.0 0.0 0.0 0.0 
3686.78 741.203 -650.976 -14.32 49.0957 15.9729 0.893301 0.0979961 0.72929 0.893596 0.0513922 0.734048 0.894334 -0.092656 0.729988 0.893591 0.0237915 0.735459 -5.06804 -18.2265 1.33572 -4.77554 -34.5926 -1.80813 -0.0 0.0 -0.0 -2.03124 21.8063 -0.345586 -13.6662 -51.5824 70.263 0.735825 -20.0271 0.129927 7.58926 0.204917 -0.947079 -0.96499 15.8678 0.530582 -0.0 0.0 -0.0 9.88415 15.9207 -19.393 -13.5491 28.4208 -55.6681 1.16263 29.9381 -0.310864 48.5906 0.869766 5.96249 0.559305 -1.04579 -4.16825 0.0 0.0 0.0 25.108 -5.30793 -10.8055 -24.1859 0.222513 3.67737 22.3784 24.274 -3.16486 -26.2929 0.0 0.0 -0.0 0.0 -0.0 19.5383 26.2927 -4.39339 -22.1155 -0.26451 -3.36246 17.1345 -29.5757 2.55869 0.842334 -0.0 -0.0 0.0 0.0 0.0 
3680.23 742.39 -644.181 -15.6179 48.6483 17.0333 0.934057 -0.0324101 0.724111 0.934345 -0.0784203 0.720582 0.933397 -0.216892 0.691627 0.932745 -0.104944 0.717199 -4.68865 -17.9091 1.00653 -4.36607 -33.7013 -1.97032 -0.0 0.0 -0.0 -1.55502 20.5005 0.127162 -12.9233 -50.296 71.5716 0.649559 -17.8368 0.101933 9.09983 0.230633 -1.13832 -0.930468 17.6462 1.51157 -0.0 0.0 -0.0 10.0884 15.5596 -19.8647 -13.7347 27.2875 -55.156 1.23899 31.5386 -0.349894 47.1697 0.773723 5.80803 0.68395 -0.85698 -4.9239 0.0 0.0 0.0 26.1347 -3.03975 -10.8148 -20.4669 0.289796 3.11076 21.3999 21.8262 -3.00236 -27.3289 0.0 0.0 -0.0 0.0 -0.0 19.7459 28.1014 -3.56328 -20.6618 -0.287184 -3.14056 15.0898 -29.5808 2.2701 1.78324 -0.0 -0.0 0.0 0.0 0.0 
3665.12 742.741 -635.682 -16.3682 49.248 17.4798 0.872123 0.0133443 0.686888 0.872385 -0.0303902 0.686346 0.872072 -0.163837 0.667197 0.871455 -0.0564123 0.684698 -3.82023 -17.7559 0.922126 -3.39507 -33.2097 -1.76546 -0.0 0.0 -0.0 -1.09216 20.711 0.830449 -12.4175 -50.9749 72.064 0.581709 -16.0751 0.0821432 10.2075 0.246281 -1.27894 -0.940757 18.0155 1.60844 -0.0 0.0 -0.0 9.51047 14.8079 -18.6172 -14.3723 26.8393 -54.9691 1.31437 33.0666 -0.390181 46.1802 0.709118 5.69909 0.568065 -0.713551 -4.09028 0.0 0.0 0.0 26.1653 -2.2901 -9.09375 -17.9448 0.314439 2.7246 21.7907 19.3103 -3.01982 -27.8809 0.0 0.0 -0.0 0.0 -0.0 19.6798 28.4526 -2.44328 -21.7649 -0.270494 -3.309 12.7354 -30.2593 1.94061 2.4167 -0.0 -0.0 0.0 0.0 0.0 
3655.24 739.341 -629.422 -15.8126 49.4302 16.3488 1.01681 0.0310568 0.734779 1.01711 -0.0157607 0.735266 1.01696 -0.157227 0.718433 1.01624 -0.0417936 0.734246 -2.53266 -18.2723 2.06184 -1.84283 -34.8001 -0.22812 -0.0 0.0 -0.0 -0.684749 18.2046 1.0916 -11.8794 -50.8087 73.1086 0.457675 -12.7743 0.0512327 11.0904 0.256803 -1.39122 -0.795458 18.5433 2.71006 -0.0 0.0 -0.0 10.0186 12.1837 -19.8317 -14.7299 26.4987 -53.6538 1.28126 32.4017 -0.372274 43.6822 0.554516 5.41934 0.324131 -1.16746 -2.64973 0.0 0.0 0.0 25.9885 -4.9544 -7.05365 -21.3872 0.276574 3.25135 25.4683 19.1376 -3.46697 -26.0261 0.0 0.0 -0.0 0.0 -0.0 21.2401 35.0444 -2.69425 -26.6374 -0.158103 -4.04806 12.5391 -31.3004 1.92674 3.69656 -0.0 -0.0 0.0 0.0 0.0 
